<?xml version="1.0" encoding="UTF-8" standalone="no"?>
<!-- Created with Inkscape (http://www.inkscape.org/) -->

<svg
   version="1.1"
   id="svg1"
   width="3379"
   height="794"
   viewBox="0 0 3379 794"
   sodipodi:docname="transparent qwm logo vector format.svg"
   inkscape:version="1.4.3 (0d15f75, 2025-12-25)"
   xmlns:inkscape="http://www.inkscape.org/namespaces/inkscape"
   xmlns:sodipodi="http://sodipodi.sourceforge.net/DTD/sodipodi-0.dtd"
   xmlns="http://www.w3.org/2000/svg"
   xmlns:svg="http://www.w3.org/2000/svg">
  <defs
     id="defs1" />
  <sodipodi:namedview
     id="namedview1"
     pagecolor="#ffffff"
     bordercolor="#cccccc"
     borderopacity="1"
     inkscape:showpageshadow="0"
     inkscape:pageopacity="1"
     inkscape:pagecheckerboard="0"
     inkscape:deskcolor="#d1d1d1"
     showguides="false"
     showborder="false"
     borderlayer="false"
     inkscape:zoom="0.52471145"
     inkscape:cx="1689.5"
     inkscape:cy="397.36125"
     inkscape:window-width="1920"
     inkscape:window-height="991"
     inkscape:window-x="-9"
     inkscape:window-y="-9"
     inkscape:window-maximized="1"
     inkscape:current-layer="g1" />
  <g
     inkscape:groupmode="layer"
     inkscape:label="Image"
     id="g1">
    <path
       style="fill:#ffffff"
       d="m 475.53794,735.1833 -53.5854,-0.2586 -0.664,-83.2414 c -0.3652,-45.78276 -0.6642,-206.20389 -0.6646,-356.49139 l -7e-4,-273.249998 50.25,-0.15214 c 27.6375,-0.0837 52.3921,-0.19617 55.0102,-0.25 l 4.7602,-0.0979 -0.017,356.456868 c -0.01,196.05126 -0.3514,356.70126 -0.7602,356.99999 -0.4087,0.29873 -24.8565,0.42677 -54.3285,0.28453 z M 48.089314,733.70053 c -0.2628,-0.69224 -0.36267,-161.00862 -0.22193,-356.25862 l 0.2559,-354.999998 51.999996,-0.5 c 28.6,-0.275 53.23816,-0.33633 54.75136,-0.1363 l 2.7514,0.36371 -0.2514,356.136288 -0.2514,356.1363 -54.27804,0.25862 c -42.891406,0.20438 -54.378306,-0.005 -54.755886,-1 z M 234.62324,379.44191 c 0,-195.525 -1e-4,-355.837498 -2e-4,-356.249998 -1e-4,-0.4125 24.9749,-0.86628 55.5,-1.0084 l 55.5002,-0.25839 -0.014,354.258388 c -0.01,194.84212 -0.2849,355.2709 -0.6166,356.5084 l -0.603,2.25 h -54.8833 -54.8834 z m 373.6751,354.84172 c -0.3713,-0.37128 -0.6751,-160.80005 -0.6751,-356.50839 V 21.941912 l 52.75,-0.10072 c 29.0125,-0.0554 53.9958,-0.1679 55.5185,-0.25 l 2.7684,-0.14928 0.013,356.499998 0.013,356.5 -54.8567,0.25838 c -30.1712,0.14212 -55.1605,-0.0454 -55.5318,-0.41666 z M 2515.1839,688.33878 c -17.6957,-4.27993 -29.7506,-17.2939 -34.0732,-36.78399 -3.5549,-16.02832 -0.3938,-31.98338 8.9236,-45.04052 12.063,-16.90475 36.6205,-22.99426 60.5889,-15.02423 7.7213,2.56751 9.1545,3.47632 15.6444,9.92064 5.148,5.11185 7.5041,8.29496 8.4318,11.39132 1.5386,5.13535 1.0255,5.66317 -6.5129,6.69998 -4.7311,0.65068 -5.1532,0.52378 -7.0479,-2.11892 -4.4561,-6.21529 -8.6665,-10.20805 -13.7118,-13.00308 -4.9274,-2.72967 -6.0484,-2.93749 -15.8036,-2.92989 -9.8014,0.008 -10.9423,0.22404 -17.1489,3.25282 -7.3369,3.5804 -12.0446,8.27041 -15.2454,15.18819 -3.0114,6.50817 -3.0753,27.93491 -0.1073,35.9422 2.6623,7.18258 8.0045,13.03202 15.5986,17.07961 10.9886,5.8569 28.1937,5.35244 39.6337,-1.16209 7.7977,-4.44046 8.2693,-5.26641 8.2693,-14.48323 v -8.32568 h -13.5499 -13.5499 l 0.2999,-5.75 0.2999,-5.75 20.8528,0.10506 20.8529,0.10505 -0.1516,23.8193 c -0.083,13.10061 -0.3995,24.22038 -0.7024,24.71058 -0.303,0.49021 -2.4185,0.73726 -4.7013,0.54901 -3.8774,-0.31978 -4.1713,-0.55828 -4.4683,-3.62635 -0.1748,-1.80623 -0.6248,-3.12405 -1,-2.92847 -7.4703,3.89429 -14.8802,6.99801 -19.6422,8.22727 -7.444,1.9216 -23.9046,1.88836 -31.9792,-0.0646 z M 1083.8803,688.2017 c -5.4548,-0.31006 -6.3116,-0.63287 -6.7877,-2.55732 -5.0299,-20.33372 -15.7578,-57.48631 -22.9913,-79.62302 -2.4119,-7.38131 -4.1546,-13.79381 -3.8727,-14.25 0.282,-0.4562 3.6203,-0.82945 7.4184,-0.82945 5.5711,0 7.078,0.33824 7.7964,1.75 0.4898,0.9625 2.3452,7.15 4.123,13.75 1.7779,6.6 4.5176,16.275 6.0883,21.5 1.5707,5.225 4.2457,15.125 5.9445,22 3.3237,13.4507 4.8408,18 6.0029,18 0.4049,0 1.9515,-4.6125 3.4368,-10.25 1.4853,-5.6375 5.794,-19.925 9.5749,-31.75 3.7809,-11.825 7.715,-24.425 8.7424,-28 l 1.8682,-6.5 8.7976,-0.5 c 4.8387,-0.275 8.916,-0.275 9.0606,0 0.3491,0.66384 13.8926,46.05188 17.1576,57.5 4.1108,14.41358 5.4959,18.5 6.2706,18.5 0.3998,0 1.5415,-3.2625 2.5372,-7.25 0.9956,-3.9875 3.8449,-14.225 6.3318,-22.75 2.4869,-8.525 6.1979,-22.25 8.2467,-30.5 l 3.7251,-15 7.6358,-0.29207 c 5.7236,-0.21892 7.6369,0.0315 7.6402,1 0,0.71064 -2.8723,10.29207 -6.3883,21.29207 -8.0472,25.17641 -14.5712,47.45262 -20.5741,70.25 l -1.1191,4.25 h -7.9862 c -9.3874,0 -8.074,1.7938 -13.911,-19 -2.0842,-7.425 -5.4714,-18.675 -7.527,-25 -2.0556,-6.325 -5.3364,-16.7875 -7.2906,-23.25 -1.9542,-6.4625 -3.8644,-11.75 -4.2447,-11.75 -0.8368,0 -3.2172,6.34782 -5.4376,14.5 -0.8987,3.3 -3.5814,12.3 -5.9614,20 -7.2409,23.42623 -10.3594,33.78763 -11.5873,38.5 -1.3863,5.32001 -2.6328,7.06975 -4.8495,6.80732 -0.8952,-0.10597 -4.4369,-0.35236 -7.8705,-0.54753 z m 150.9929,0.0828 -2.25,-0.48166 v -48.40683 -48.40683 l 37.5441,-0.27362 c 37.3038,-0.27187 37.5475,-0.26031 38.0658,1.80659 0.2869,1.14412 0.3796,4.06912 0.2059,6.5 l -0.3158,4.41979 -30.25,-0.37809 -30.25,-0.37809 v 15.20385 15.20386 l 28.0516,-0.72361 28.0515,-0.7236 -0.3015,6.37082 -0.3016,6.37082 -27.75,-0.27569 -27.75,-0.27569 v 16.05271 16.05271 h 31.0477 31.0477 l -0.2977,6.17769 -0.2977,6.1777 -36,0.23442 c -19.8,0.12893 -37.0125,0.0177 -38.25,-0.24725 z m 111.2497,-0.3431 c -0.3687,-0.59659 2.927,-8.82803 7.3237,-18.29209 8.4538,-18.19655 30.4166,-69.32164 33.5066,-77.99654 0.5575,-1.56527 1.7292,-1.75299 9.3618,-1.5 l 8.7246,0.28917 2.1941,6 c 2.6558,7.26276 9.0116,22.45389 13.3884,32 1.7652,3.85 5.6859,12.85 8.7127,20 3.0267,7.15 8.3798,18.57531 11.8958,25.38957 3.5159,6.81427 6.3926,13.00177 6.3926,13.75 0,0.99286 -1.5873,1.36043 -5.875,1.36043 -9.5366,0 -11.8999,-0.7889 -13.0831,-4.36723 -0.5697,-1.72302 -2.9497,-7.53641 -5.2889,-12.91864 l -4.253,-9.78586 -23.2621,-0.21414 -23.2621,-0.21413 -4.5153,11 c -7.1119,17.32576 -5.9201,15.95456 -14.1599,16.29209 -4.3562,0.17845 -7.3914,-0.12994 -7.8009,-0.79263 z m 65.8587,-38.98947 c 2.5531,-0.0137 1.7309,-3.1128 -3.9272,-14.80251 -2.4738,-5.11088 -5.875,-13.43588 -7.5583,-18.5 -3.5408,-10.65272 -4.3993,-11.93622 -5.7589,-8.60961 -0.5399,1.32117 -4.6142,10.95213 -9.054,21.40213 -4.4397,10.45 -8.0695,19.3045 -8.0661,19.67667 0.011,1.20583 3.2524,1.40804 18.0061,1.12323 7.975,-0.15395 15.3363,-0.28441 16.3584,-0.28991 z m 80.3821,39.36125 c -1.6526,-0.48985 -1.7438,-3.45153 -1.5,-48.69641 l 0.2595,-48.17483 6.7586,-0.5 c 3.7173,-0.275 7.0923,-0.38777 7.5,-0.2506 0.4078,0.13717 0.6023,19.36727 0.4323,42.73355 l -0.3092,42.48416 26.8092,0.26644 26.8091,0.26645 -0.142,5.30863 c -0.078,2.91975 -0.4154,5.58211 -0.7496,5.91636 -0.7522,0.75218 -63.4358,1.36719 -65.8679,0.64625 z m 134.0095,-0.1231 -6.75,-0.33952 7e-4,-42.20431 6e-4,-42.20431 h -17.7506 -17.7507 l -0.298,-6.26066 -0.298,-6.26066 43.298,0.26066 43.298,0.26066 0.2988,3.55647 c 0.1644,1.95606 -0.1229,4.6657 -0.6383,6.02142 l -0.9372,2.46494 -16.6009,-0.21817 -16.601,-0.21817 -0.2607,42.61362 c -0.168,27.46116 -0.6163,42.65876 -1.2607,42.74058 -0.55,0.0698 -4.0375,-0.0258 -7.75,-0.21255 z m 89.25,-48.16608 v -48.91794 l 7.0222,-0.33206 c 3.8623,-0.18263 7.3498,-0.21991 7.75,-0.0829 0.4003,0.13707 0.5753,9.47457 0.3889,20.75 l -0.3389,20.50079 h 28.2321 28.2321 l -0.5126,-20.51372 c -0.5096,-20.3912 -0.4997,-20.51697 1.6485,-21.05612 3.0075,-0.75484 14.1327,-0.0952 13.8277,0.81984 -0.1375,0.4125 -0.25,22.575 -0.25,49.25 v 48.5 l -5.75,-0.0137 c -11.141,-0.0264 -10.25,1.97588 -10.25,-23.03332 v -21.81372 l -27.6319,0.18035 -27.6319,0.18035 0.4758,22.25 0.4759,22.25 h -7.844 -7.8439 z m 210.8264,48.26487 c -1.5385,-0.42668 -1.6596,-4.37761 -1.5,-48.93448 l 0.1736,-48.47033 10.3243,0.27894 10.3242,0.27894 4.9854,12 c 11.1957,26.9485 17.9377,44.00987 21.4255,54.21992 2.0254,5.92904 4.0072,11.13665 4.404,11.57246 1.0894,1.19657 2.5775,-1.18979 4.5474,-7.29238 1.8096,-5.60597 5.8713,-15.78278 16.9621,-42.5 3.4247,-8.25 7.231,-18.0375 8.4585,-21.75 l 2.2317,-6.75 h 10.0254 c 8.299,0 9.9307,0.24713 9.4748,1.43502 -0.3029,0.78927 -0.1653,22.50177 0.3057,48.25 0.471,25.74824 0.4796,47.20854 0.019,47.68955 -0.4605,0.48102 -3.7962,0.5577 -7.4127,0.17041 l -6.5754,-0.70417 v -37.42041 c 0,-21.11739 -0.3866,-37.4204 -0.8875,-37.4204 -0.9742,0 -3.1719,5.17025 -11.4766,27 -3.0339,7.975 -8.3654,21.925 -11.8478,31 l -6.3315,16.5 -6.9783,0.26834 -6.9783,0.26834 -10.7355,-27.26834 c -5.9046,-14.99759 -12.3905,-32.10584 -14.4131,-38.01834 -2.0226,-5.9125 -4.0541,-10.75 -4.5144,-10.75 -0.7019,0 -1.2861,29.71492 -1.3272,67.5 l -0.01,9 -5.5,0.15554 c -3.025,0.0856 -6.2531,-0.0533 -7.1736,-0.30861 z m 150.4236,-0.0842 c -2.8875,-0.20201 -5.25,-0.5816 -5.25,-0.84354 0,-0.26194 1.388,-3.22575 3.0843,-6.58625 3.5707,-7.07355 16.358,-37.12164 28.6542,-67.33297 4.7009,-11.55 9.0021,-21.57958 9.5583,-22.28796 0.7122,-0.90717 3.3972,-1.20282 9.0817,-1 l 8.0707,0.28796 2.8705,7 c 3.0408,7.41523 7.6956,18.14499 13.2317,30.5 1.8484,4.125 6.2607,14.475 9.8053,23 3.5446,8.525 8.6955,20.3064 11.4464,26.1809 2.751,5.8745 4.7457,10.937 4.4327,11.25 -0.7573,0.75727 -7.7804,0.62446 -12.6129,-0.23853 l -3.8771,-0.69237 -5.1775,-13.5 -5.1774,-13.5 -23.2998,0.1592 -23.2997,0.1592 -4.2318,9.8408 c -2.3275,5.41244 -4.5313,11.04683 -4.8972,12.52087 -0.8331,3.35557 -3.2869,5.87705 -5.4838,5.63495 -0.9232,-0.10174 -4.0411,-0.35026 -6.9286,-0.55226 z m 62.75,-39.77635 c 0,-0.28248 -2.423,-6.01998 -5.3844,-12.75 -8.9578,-20.3569 -11.334,-26.10339 -12.0458,-29.13106 -0.3743,-1.59205 -1.0375,-2.49205 -1.4738,-2 -0.4363,0.49206 -2.8613,6.06965 -5.3889,12.39465 -4.7357,11.8503 -8.4886,20.57314 -11.8048,27.43783 -1.0463,2.1658 -1.9023,4.0783 -1.9023,4.25 0,0.17169 8.55,0.31217 19,0.31217 10.45,0 19,-0.23112 19,-0.51359 z m 76.3759,-8.48343 c 0.081,-31.85387 0.474,-49.02563 1.1241,-49.07878 4.4558,-0.36431 14.2148,0.42413 15.1816,1.22654 0.6597,0.54749 4.9136,6.25004 9.4532,12.67235 4.5396,6.4223 12.1038,16.9868 16.8095,23.47666 4.7056,6.48986 11.5658,16.16486 15.2447,21.5 9.1245,13.23217 10.8554,15.35219 12.1747,14.91198 0.8298,-0.27687 1.0374,-10.26924 0.7698,-37.04543 l -0.3665,-36.6663 h 7.1165 7.1165 v 48.44098 c 0,26.64254 -0.3375,48.60621 -0.75,48.80814 -0.4125,0.20194 -4.01,0.116 -7.9945,-0.19098 l -7.2446,-0.55814 -3.2554,-4.69795 c -6.1558,-8.88337 -24.2218,-33.31475 -31.6505,-42.80205 -4.0912,-5.225 -9.8669,-13.2125 -12.8348,-17.75 -2.9679,-4.5375 -5.8598,-8.25 -6.4265,-8.25 -0.6947,0 -0.9185,12.04899 -0.687,36.98933 0.2796,30.12086 0.096,37.08416 -0.9885,37.5 -0.7325,0.28087 -3.9383,0.51067 -7.124,0.51067 h -5.7923 z m 128.9365,48.35552 c -1.2076,-0.49171 -0.6157,-2.25212 4.4911,-13.3585 1.1381,-2.475 3.2629,-7.425 4.7218,-11 1.4589,-3.575 6.1713,-14.825 10.472,-25 7.3126,-17.30092 16.0474,-38.37722 18.9375,-45.69434 l 1.2617,-3.19434 8.52,0.19434 8.5199,0.19434 1.9518,5 c 5.9638,15.27743 28.8806,69.65659 33.4849,79.45613 2.9605,6.30087 5.1593,12.03837 4.8862,12.75 -0.5314,1.38482 -7.9582,1.76409 -13.3658,0.68256 -2.9053,-0.58106 -3.2925,-1.2737 -7.8248,-14 l -4.7682,-13.38869 -20.8002,-0.17857 c -11.4402,-0.0982 -21.7303,-0.21072 -22.867,-0.25 -1.6836,-0.0582 -2.8091,1.68987 -6.0711,9.42857 -2.2023,5.225 -4.4691,11.075 -5.0372,13 -1.6079,5.44843 -2.4766,6.00764 -9.1974,5.92105 -3.3702,-0.0434 -6.662,-0.29657 -7.3152,-0.56255 z m 65.6876,-40.33567 c 0,-1.28155 -3.7197,-10.86492 -9.5184,-24.52283 -2.5686,-6.05 -5.1259,-12.575 -5.6829,-14.5 -2.0276,-7.00738 -2.3381,-6.61772 -9.3977,11.7954 -2.4681,6.43753 -5.1112,13.05548 -5.8735,14.70657 -3.7435,8.10845 -5.3234,12.36883 -4.7859,12.90624 1.04,1.04005 35.2584,0.66603 35.2584,-0.38538 z m 220.8225,40.46636 c -0.2809,-0.28094 -0.3678,-22.33383 -0.193,-49.00641 l 0.3178,-48.49561 36.1639,-0.46762 c 19.8901,-0.25719 36.4394,-0.29847 36.7763,-0.0917 0.3369,0.20675 0.4668,3.23257 0.2887,6.72404 l -0.3238,6.34813 -28.5593,-0.34368 c -23.1049,-0.27805 -28.7219,-0.0871 -29.4109,1 -0.4683,0.73902 -0.8585,7.3196 -0.8669,14.62351 l -0.015,13.27983 26.25,-0.0606 c 14.4375,-0.0333 26.8125,-0.0467 27.5,-0.0298 0.8602,0.0212 1.25,1.93504 1.25,6.13704 v 6.10631 l -26.989,-0.35631 c -21.803,-0.28784 -27.0872,-0.1004 -27.5,0.97548 -0.2811,0.73248 -0.511,8.06391 -0.511,16.29207 v 14.96028 l 30.0007,-0.29207 30.0007,-0.29207 -7e-4,6.75 -7e-4,6.75 h -36.8333 c -20.2584,0 -37.0632,-0.22987 -37.3442,-0.51081 z m 284.1775,-48.80807 v -49.31887 l 37.5,-0.23355 37.5,-0.23355 v 7.16372 7.16371 l -3.25,-0.57408 c -1.7875,-0.31574 -15.175,-0.6611 -29.75,-0.76747 l -26.5,-0.19339 -0.2767,14.65618 -0.2768,14.65618 h 28.0767 28.0766 l -0.2999,5.75 -0.2999,5.75 h -27.1598 -27.1597 l -0.3595,14 c -0.1978,7.7 -0.1798,15.04469 0.04,16.32153 l 0.3995,2.32154 30.1198,-0.22925 c 16.5658,-0.12609 30.2322,0.0667 30.3697,0.42846 0.1375,0.36175 0.25,3.35772 0.25,6.65772 v 6 h -38.5 -38.5 z m 127.4582,48.06888 c -0.2635,-0.6875 -0.3619,-22.625 -0.2187,-48.75 l 0.2605,-47.5 8.5,-0.27565 8.5,-0.27566 2.9681,4.77566 c 4.8451,7.79576 35.4207,50.75561 38.3101,53.82716 1.0614,1.12833 3.9459,4.92844 6.4099,8.44469 2.464,3.51625 5.0047,6.56807 5.646,6.78182 0.8739,0.2913 1.1659,-8.87913 1.1659,-36.61263 v -37.00127 l 7.0984,-0.33206 c 3.9041,-0.18263 7.1666,-0.10706 7.25,0.16794 0.083,0.275 0.023,22.45613 -0.1349,49.29141 l -0.2865,48.7914 -7.6986,-0.2914 -7.6985,-0.29141 -6.0149,-8.15716 c -3.3083,-4.48643 -9.84,-13.46832 -14.515,-19.95975 -4.675,-6.49143 -10.9109,-14.74571 -13.8575,-18.34285 -2.9467,-3.59713 -8.7173,-11.60274 -12.8237,-17.79024 -4.1064,-6.1875 -7.9488,-11.25 -8.5388,-11.25 -0.7539,0 -0.9182,11.29401 -0.5529,38 l 0.5198,38 h -6.9048 c -4.6017,0 -7.0647,-0.41695 -7.3839,-1.25 z m 164.2085,0.58333 c -0.3667,-0.36666 -0.6667,-19.49166 -0.6667,-42.5 v -41.83333 h -17.5 -17.5 v -6.5 -6.5 l 42,-0.15 c 23.1,-0.0825 42.542,-0.195 43.2045,-0.25 0.8335,-0.0692 1.1257,1.59407 0.9486,5.4 -0.4281,9.19965 1.0303,8.54452 -18.1408,8.14917 l -17.0123,-0.35083 v 42.60083 42.60083 h -7.3333 c -4.0334,0 -7.6334,-0.3 -8,-0.66667 z m -450.1667,-48.83222 v -48.49954 l 11.7115,-7.9e-4 11.7114,-7.8e-4 1.0822,4.01886 c 0.5952,2.21038 2.0134,6.14788 3.1515,8.75 1.1381,2.60213 4.0004,9.68114 6.3607,15.73114 2.3602,6.05 5.9598,14.825 7.9991,19.5 2.0393,4.675 5.1734,13.20534 6.9647,18.95632 1.7912,5.75097 3.7017,10.60461 4.2455,10.78586 0.5437,0.18125 2.2209,-3.17409 3.727,-7.45632 1.5061,-4.28222 7.3803,-19.48586 13.0539,-33.78586 5.6736,-14.3 10.8782,-27.91785 11.5659,-30.26188 0.6877,-2.34403 1.7496,-4.67623 2.3598,-5.18266 0.8721,-0.72382 13.7584,-1.48284 19.0782,-1.12373 0.6124,0.0413 1.0068,4.11182 1,10.31827 -0.01,5.6375 0.168,27.35 0.3873,48.25 l 0.3987,38 -7.1487,0.29381 -7.1487,0.29381 -0.094,-20.79381 c -0.052,-11.4366 -0.016,-27.09982 0.079,-34.80717 0.169,-13.7443 -0.4179,-19.48664 -1.9915,-19.48664 -0.4346,0 -2.0096,3.4875 -3.4999,7.75 -1.4904,4.2625 -3.986,11.125 -5.5458,15.25 -2.6564,7.02483 -14.2341,38.30843 -17.6717,47.75 l -1.5474,4.25 h -6.7923 -6.7923 l -1.9823,-5.25 c -1.0903,-2.8875 -4.7125,-11.63977 -8.0495,-19.44949 -3.3369,-7.80972 -9.2261,-22.41105 -13.0869,-32.44741 -3.8609,-10.03636 -7.471,-18.69909 -8.0224,-19.25051 -0.6701,-0.67012 -1.0026,11.83075 -1.0026,37.69741 v 38.7 l -7.25,3.2e-4 -7.25,3.3e-4 z M 1183.1881,523.35943 c -49.3062,-7.66363 -92.8715,-26.20622 -132.4604,-56.3789 -6.6265,-5.05036 -14.1984,-11.09486 -16.8263,-13.43222 -6.6365,-5.90256 -22.0649,-17.821 -26.2782,-20.29992 -2.2692,-1.33509 -6.2099,-2.29181 -11.20616,-2.72059 -9.3955,-0.80633 -32.272,-6.32759 -43.7001,-10.54706 -51.0875,-18.86252 -87.2373,-53.81643 -105.5298,-102.03883 -9.5503,-25.17626 -13.0631,-61.02625 -8.5739,-87.5 1.2124,-7.15 2.4982,-13.225 2.8572,-13.5 0.359,-0.275 0.7702,-1.98596 0.9137,-3.80213 0.4566,-5.77996 7.3106,-25.3113 12.9599,-36.9308 15.9399,-32.78555 41.4824,-59.1907 76.1601,-78.732188 33.4397,-18.84388 79.04546,-28.55572 119.85096,-25.52248 49.9229,3.71098 92.9958,22.24183 124.9341,53.749248 21.2833,20.99619 39.6079,52.48196 46.9323,80.6402 6.9361,26.66553 7.0698,61.20195 0.3397,87.77817 -10.6375,42.00651 -40.3186,83.77206 -77.2378,108.68489 -20.0088,13.50182 -53.0619,26.07994 -68.7002,26.1434 -8.363,0.0339 -9.359,1.28185 -4.5,5.638 4.3624,3.91094 13.0157,10.73339 27,21.2874 27.7143,20.91613 62.2748,38.07056 94.5,46.90596 13.1653,3.60962 33.7705,7.16033 41.5522,7.16033 h 7.5392 l -0.2957,6.75 -0.2957,6.75 -6.5,0.63311 c -11.8949,1.1586 -44.1566,0.72655 -53.4351,-0.71559 z m -127.7183,-103.0513 c 18.9475,-3.83522 37.6556,-11.27351 51.2836,-20.39015 8.1608,-5.4593 25.1394,-22.58657 31.8216,-32.1002 15.6783,-22.32164 25.6635,-50.25092 29.6295,-82.87587 2.2759,-18.72165 1.5383,-54.48046 -1.4711,-71.32364 -7.3893,-41.35553 -22.036,-71.71154 -45.1056,-93.48385 -21.5586,-20.346188 -50.7096,-31.756068 -84.0046,-32.879828 -13.2533,-0.44733 -17.1669,-0.20576 -27,1.66663 -21.39806,4.07455 -36.81046,9.93696 -51.56456,19.613518 -28.0667,18.40784 -49.6598,50.98009 -58.2762,87.90717 -4.4546,19.0909 -5.603,30.73175 -5.5738,56.5 0.048,42.43652 5.8642,69.01401 21.6648,99 20.5929,39.08078 54.0976,63.85322 93.24976,68.94627 4.4,0.57236 9.35,1.22668 11,1.45404 5.4387,0.74942 26.8635,-0.51941 34.3466,-2.03409 z m 353.6534,13.59699 c -31.1003,-2.34415 -55.2503,-10.30765 -73.2265,-24.14654 -12.7025,-9.77897 -23.8375,-25.25093 -27.817,-38.65119 -4.183,-14.08566 -4.4444,-20.80066 -4.4506,-114.30065 -0.01,-100.33113 0.244,-96.61492 -7.0043,-103.8632 -4.7678,-4.76783 -10.1484,-6.26016 -25.0016,-6.9343 l -12.5,-0.56733 v -6 -6 l 67,0.25256 67,0.25257 -0.3541,5.24743 c -0.4434,6.57018 -0.7196,6.99997 -4.0318,6.2725 -3.0328,-0.66611 -19.6062,1.00391 -25.4162,2.56109 -4.3518,1.16633 -10.7762,7.28822 -14.0347,13.37392 -2.1631,4.03977 -2.1632,4.04339 -2.4629,91.03993 -0.3109,90.21153 -0.1264,95.45096 3.8871,110.39503 7.5579,28.14159 23.9646,43.8546 53.6056,51.33925 7.6823,1.93986 11.4249,2.22378 29.307,2.22333 22.5241,-5.7e-4 30.0975,-1.07758 45.2936,-6.44112 12.5896,-4.44357 21.3665,-9.70422 29.2736,-17.54568 10.4176,-10.33121 16.7361,-22.68363 21.6169,-42.26 2.1228,-8.51421 2.1801,-10.54864 2.5431,-90.13977 0.2493,-54.6778 0.02,-83.69403 -0.6984,-88.32371 -2.8978,-18.67657 -12.4058,-25.73791 -37.0257,-27.49808 -11.5659,-0.82689 -11.831,-1.02259 -10.5605,-7.79501 l 0.6277,-3.34603 53.9649,0.14363 53.9648,0.14363 v 3.86801 c 0,6.08308 -1.2842,7.64221 -5.7964,7.037 -5.6826,-0.7622 -17.6866,1.40386 -23.1652,4.18004 -6.0094,3.04521 -11.4274,9.26543 -13.0176,14.94517 -0.9017,3.22076 -1.2649,25.61108 -1.4065,86.70814 -0.1697,73.27548 -0.3867,83.63541 -1.9656,93.86617 -1.7467,11.31811 -6.9254,28.656 -10.9022,36.5 -8.1228,16.0215 -22.9767,30.50027 -40.1686,39.15426 -21.661,10.90361 -56.4385,16.61837 -87.0779,14.30895 z m 1816,-0.65875 c -28.7582,-2.58346 -50.9635,-8.98397 -71.2631,-20.54104 l -7.263,-4.13506 0.263,-33.56418 0.2631,-33.56418 6.7197,-0.295 c 7.6924,-0.33771 7.2455,-0.93715 8.1707,10.95883 0.306,3.93403 1.7779,9.93004 3.5931,14.63715 9.4153,24.41462 31.2575,42.72967 58.2955,48.88174 10.866,2.4724 31.8891,2.20111 42.221,-0.54484 12.2108,-3.24532 24.0455,-9.48778 30.2742,-15.96884 9.6581,-10.04945 16.1477,-27.81075 14.7617,-40.40083 -1.8495,-16.79904 -10.185,-29.76089 -26.5255,-41.24774 -7.3133,-5.14096 -29.8923,-16.93922 -45.0104,-23.51936 -13.6614,-5.94612 -40.3559,-19.57595 -50,-25.52928 -12.4525,-7.68703 -25.1788,-20.32561 -30.2252,-30.0169 -6.2258,-11.95623 -8.1055,-20.78932 -7.5413,-35.43708 0.3892,-10.10476 1.0042,-14.06003 3.1903,-20.51785 8.4653,-25.00744 29.7101,-43.1333 59.621,-50.86822 28.9454,-7.48522 54.7029,-6.12022 84.6728,4.48718 4.8303,1.70963 12.3824,4.38682 16.7824,5.94931 l 8,2.8409 0.2487,29.59763 0.2487,29.59763 -5.117,-0.30222 -5.1169,-0.30221 -1.8184,-7.17846 c -2.3014,-9.08524 -7.6883,-20.79552 -12.412,-26.98203 -19.6255,-25.7027 -59.5332,-34.22592 -91.0975,-19.45601 -8.6467,4.04606 -18.607,13.68802 -22.6741,21.94935 -3.0249,6.1446 -3.2615,7.35262 -3.2615,16.65638 v 10.03129 l 4.4283,7.73974 c 2.4356,4.25686 4.7981,7.73974 5.25,7.73974 1.5613,0 0.8161,1.85483 -0.9283,2.31067 -1.3081,0.34184 -1.1779,0.48662 0.5156,0.57333 1.246,0.0638 5.521,2.75497 9.5,5.98038 10.9161,8.84883 24.5203,16.21528 43.7344,23.68145 67.4729,26.21846 96.3119,51.83136 101.0355,89.73311 2.2164,17.78387 -0.8047,31.09907 -11.324,49.90933 -7.6698,13.71475 -23.908,27.80888 -41.7362,36.22528 -17.658,8.33607 -46.2657,12.88608 -68.4753,10.89091 z m -871.7997,-7.06092 -73.7997,-0.25646 0.2997,-5.6606 0.2997,-5.6606 9,-0.30818 c 24.6428,-0.84383 36.1741,-6.16059 41.1086,-18.95411 1.816,-4.70803 1.8914,-9.50999 1.8914,-120.40359 v -115.5 l -35.5,0.0224 c -34.0493,0.0214 -35.7394,0.11187 -41.3593,2.21274 -7.8079,2.91881 -15.6691,9.14603 -20.9997,16.63479 -5.9469,8.35469 -8.1757,12.99425 -11.1155,23.13879 -1.3792,4.75936 -2.7632,9.06692 -3.0756,9.57235 -0.6959,1.12612 -8.4702,1.19287 -10.2111,0.0877 -0.987,-0.62653 -0.386,-5.46213 2.7635,-22.23469 2.2137,-11.78872 5.6949,-30.54653 7.736,-41.68403 l 3.7112,-20.25 h 5.2752 c 4.3777,0 5.2753,0.30079 5.2753,1.76786 0,3.28379 4.8068,9.00969 8.7285,10.3975 3.0579,1.08209 24.7143,1.33464 114.4485,1.33464 109.8876,0 110.6971,-0.0146 113.5,-2.04422 1.5527,-1.12431 4.0771,-4.61181 5.61,-7.75 l 2.787,-5.70578 h 5.7696 5.7696 l -0.057,13.75 c -0.031,7.5625 0.1684,26.575 0.4434,42.25 l 0.5,28.5 -4.1157,-0.0915 c -6.4849,-0.14413 -7.3843,-0.81196 -7.3843,-5.48279 0,-4.96033 -2.1648,-13.88116 -5.6848,-23.42573 -2.0697,-5.61228 -3.8036,-8.20965 -8.746,-13.10173 -8.9343,-8.8433 -9.3593,-8.91453 -52.642,-8.82326 -19.565,0.0413 -36.3275,0.36464 -37.25,0.71862 -1.556,0.59709 -1.6772,8.86043 -1.6772,114.34307 0,79.81932 0.3357,115.62713 1.1266,120.16858 2.4866,14.27933 13.2213,19.75002 40.6031,20.69251 l 11.7703,0.40514 0.3045,4.54004 c 0.1674,2.49702 -0.058,5.10636 -0.5,5.79853 -0.637,0.99653 -16.1669,1.20511 -74.6042,1.00204 z m 735.7027,-0.005 -41.0971,-0.26097 -2.8189,-5.23903 c -3.3449,-6.21638 -8.3901,-14.07494 -30.0068,-46.73903 -16.9276,-25.57877 -20.4844,-31.06181 -37.4109,-57.67257 -5.6579,-8.89491 -12.4934,-18.64802 -15.1901,-21.67357 -6.7404,-7.56266 -10.107,-8.53356 -30.3792,-8.76122 l -16,-0.17967 -0.2741,50.39351 c -0.1598,29.36814 0.134,53.0561 0.7042,56.77519 1.0349,6.75018 4.3674,12.95668 8.3624,15.57429 4.4446,2.91226 17.751,5.51264 28.2908,5.52869 5.5459,0.008 10.2855,0.2175 10.5326,0.46456 0.2471,0.24707 0.2096,2.80031 -0.083,5.67387 l -0.5326,5.22466 -69.25,0.13552 c -62.1146,0.12155 -69.2511,-0.0252 -69.261,-1.42388 -0.01,-0.85766 -0.2899,-3.24688 -0.6308,-5.30938 l -0.6199,-3.75 h 7.4547 c 9.6938,0 25.2335,-2.68729 30.307,-5.241 4.8263,-2.42927 8.998,-7.01692 10.6928,-11.759 1.6596,-4.64345 2.4509,-216.34915 0.8537,-228.41308 -1.224,-9.24563 -4.356,-15.37903 -9.4659,-18.53711 -4.8958,-3.0258 -15.5057,-5.01229 -26.8783,-5.03245 l -9.7977,-0.0174 0.2977,-6.0546 0.2977,-6.05459 78,-0.0417 c 53.6888,-0.0287 80.6493,0.31878 86.5,1.11477 27.97,3.80533 50.0566,14.59848 61.3967,30.00297 15.7115,21.34248 18.1334,47.16188 6.5741,70.08503 -8.8791,17.60815 -31.4018,36.11972 -50.4708,41.48222 -3.3,0.92801 -6.3905,2.05053 -6.8679,2.49448 -0.4773,0.44395 1.5931,4.10663 4.601,8.13929 3.0079,4.03265 9.2989,13.1821 13.98,20.3321 4.6811,7.15 12.94,19.75 18.3532,28 5.4132,8.25 10.4434,16.09908 11.1784,17.44241 2.9287,5.35281 22.0104,31.48639 29.1335,39.90021 10.8213,12.78217 32.61,23.07485 48.9854,23.14002 l 4.3635,0.0174 -0.6958,4.75 c -0.3827,2.6125 -0.9963,4.975 -1.3636,5.25 -0.3672,0.275 -19.1614,0.38256 -41.7647,0.23903 z M 2950.6873,269.92936 c 25.3587,-1.40648 37.0774,-4.91763 49.6915,-14.88847 19.0065,-15.02378 24.5781,-46.5508 12.5346,-70.92742 -5.1832,-10.49108 -16.9502,-22.39294 -26.7902,-27.09736 -9.9279,-4.7464 -16.3889,-6.81322 -25.0755,-8.02142 -12.6568,-1.7604 -40.9188,-0.89038 -43.1394,1.32802 -0.7891,0.7883 -2.3339,118.46624 -1.5735,119.8692 0.5478,1.01091 13.1254,0.91478 34.3525,-0.26255 z M 1571.0467,424.96894 c -1.535,-0.42057 -1.9235,-1.436 -1.9235,-5.02703 0,-5.11413 0.9315,-5.66577 9.9319,-5.88169 7.7797,-0.18663 19.9889,-3.94436 26.5101,-8.15924 13.407,-8.66531 18.8523,-19.28584 53.5578,-104.45907 8.9644,-22 19.9807,-48.775 24.4807,-59.5 4.5,-10.725 8.6394,-20.7375 9.1985,-22.25 0.5592,-1.5125 1.7601,-2.75689 2.6688,-2.76531 1.0753,-0.01 1.2536,-0.27186 0.5106,-0.75 -1.1546,-0.7431 10.6801,-31.36285 26.5663,-68.73469 3.9746,-9.35 7.8443,-19.3679 8.5993,-22.26201 0.755,-2.8941 1.6476,-5.7066 1.9834,-6.25 0.3359,-0.54339 4.8233,-0.98799 9.9722,-0.98799 h 9.3615 l 0.6881,3.25 c 0.6922,3.26928 3.2254,9.38366 16.4687,39.75 17.633,40.43171 23.0383,53.39044 22.6948,54.40869 -0.2025,0.60022 0.2161,1.54131 0.9302,2.09131 1.1398,0.8778 29.6199,67.88743 43.564,102.5 10.2961,25.55711 27.1692,65.76142 30.9094,73.64893 2.9287,6.1762 4.8862,8.90057 8.0861,11.25378 5.686,4.18156 13.5802,7.05274 23.8176,8.66264 4.675,0.73518 8.6125,1.35873 8.75,1.38567 0.1375,0.0269 0.25,2.22814 0.25,4.89156 v 4.84258 l -66.6186,0.58051 c -36.6403,0.31928 -67.2403,0.34197 -68,0.0504 -0.9389,-0.36028 -1.3814,-2.25766 -1.3814,-5.92309 v -5.39301 l 10.75,-0.0174 c 11.4756,-0.0185 23.0211,-1.94744 26.9106,-4.49592 1.3085,-0.85736 3.7202,-3.41013 5.3593,-5.67282 3.675,-5.07318 3.9222,-10.58916 0.892,-19.89875 -1.8332,-5.63203 -28.8313,-74.49906 -32.3094,-82.41515 l -1.3181,-3 -52.8922,0.27488 -52.8922,0.27487 -8.7797,21.72513 c -4.8288,11.94881 -10.3229,25.77512 -12.2092,30.72512 -1.8863,4.95 -5.7652,15.075 -8.6199,22.5 -4.4165,11.4877 -5.2052,14.56957 -5.2907,20.67546 -0.1199,8.56074 1.6039,11.62857 8.4515,15.04145 5.384,2.68342 19.693,5.28309 29.079,5.28309 h 6.869 l -0.014,3.25 c -0.01,1.7875 -0.2557,4.15 -0.5514,5.25 -0.5296,1.96953 -1.3952,2.00041 -56.8129,2.02703 -30.9513,0.0149 -57.1406,-0.21014 -58.1986,-0.5 z m 207.5765,-141.13213 c 0,-0.53602 -0.9228,-2.78339 -2.0506,-4.99415 -1.1279,-2.21077 -3.7811,-8.38034 -5.896,-13.71016 -2.1149,-5.32983 -5.7402,-14.19059 -8.0562,-19.69059 -2.3161,-5.5 -5.7696,-13.825 -7.6747,-18.5 -1.905,-4.675 -4.0999,-8.9945 -4.8776,-9.59888 -0.7776,-0.60438 -1.1261,-1.38662 -0.7744,-1.73832 0.7709,-0.77083 -2.8706,-9.62027 -11.2662,-27.37908 -3.4365,-7.26895 -6.5386,-14.13145 -6.8936,-15.25 -0.8804,-2.77378 -1.9492,-2.55274 -3.4636,0.71628 -4.8083,10.37913 -17.0244,40.8156 -16.731,41.68507 0.1977,0.58571 -0.1673,1.51493 -0.8111,2.06493 -0.6438,0.55 -4.5902,9.1 -8.7699,19 -4.1797,9.9 -10.5121,24.61181 -14.0721,32.69292 -6.189,14.04906 -6.3782,14.71102 -4.3178,15.10595 4.8166,0.92324 95.6548,0.53961 95.6548,-0.40397 z m 147.4961,141.26786 c -0.2728,-0.27285 -0.4961,-2.67109 -0.4961,-5.32943 v -4.83333 h 6.369 c 8.3989,0 22.7033,-2.54532 28.6279,-5.09403 6.2035,-2.66865 10.5473,-7.32852 12.0308,-12.90597 1.533,-5.76382 2.3903,-212.73452 0.9394,-226.78167 -2.0036,-19.39746 -7.5859,-23.43717 -34.5744,-25.02059 l -11.8927,-0.69774 -0.3041,-5.3031 -0.3041,-5.3031 82.8041,0.38887 c 72.4585,0.34027 83.7381,0.5959 90.2793,2.04597 9.1396,2.02608 22.1349,6.25176 27.5248,8.95024 24.3627,12.19733 39.1715,35.96844 38.3961,61.63347 -0.1593,5.27321 -0.5924,10.03765 -0.9625,10.58765 -0.37,0.55 -0.9565,2.575 -1.3031,4.5 -1.9084,10.59659 -13.1959,27.16276 -25.8928,38.00181 -9.2684,7.91219 -23.4663,15.49556 -31,16.55761 -2.6193,0.36924 -5.0258,1.0978 -5.348,1.61901 -0.3221,0.52122 1.4207,3.50679 3.8729,6.63462 2.4523,3.12782 6.1683,8.38695 8.2578,11.68695 33.3821,52.7209 58.7041,88.88753 69.7366,99.60286 10.2748,9.9795 24.7569,16.71512 39.5417,18.39089 l 6.2986,0.71392 -0.2986,5.14616 -0.2987,5.14617 h -38 c -42.772,0 -45.5,-0.1321 -45.5,-2.20334 0,-1.71843 -5.9138,-11.99057 -14.6817,-25.50195 -9.0945,-14.01454 -18.0341,-28.21553 -39.5296,-62.79471 -21.4127,-34.4459 -23.8813,-38.19655 -28.1288,-42.73763 -4.7654,-5.09485 -9.0992,-6.10782 -27.9409,-6.53073 l -16.781,-0.37666 0.281,57.14656 0.281,57.14655 2.684,4.05481 c 1.6262,2.45677 4.4283,4.89919 7.1099,6.19732 6.023,2.91567 18.1406,5.09978 28.2941,5.09978 9.3003,0 9.3536,0.0519 7.8358,7.625 l -0.5762,2.875 -68.4277,0.0794 c -37.6352,0.0437 -68.6509,-0.14381 -68.9238,-0.41667 z m 130.316,-155.20858 c 22.728,-1.62938 36.6654,-7.23484 47.7585,-19.20795 10.2768,-11.0921 14.0536,-23.44942 13.1744,-43.10536 -0.6167,-13.78775 -3.0096,-21.72591 -9.5854,-31.79909 -5.9065,-9.04776 -12.3878,-14.81772 -21.7814,-19.39089 -12.8669,-6.26405 -20.1781,-7.53862 -43.0253,-7.50062 -19.8666,0.033 -23.14,0.36278 -24.5876,2.47679 -0.9167,1.33875 -1.0135,117.99144 -0.099,118.90627 0.9947,0.99471 21.8768,0.78715 38.1454,-0.37915 z m 450.7255,154.28316 c -0.2957,-0.7705 -0.5376,-3.09553 -0.5376,-5.16673 v -3.76581 l 12.5328,-0.67 c 24.4597,-1.3076 31.9394,-4.71047 37.6636,-17.1348 l 2.3036,-5 v -114 -114 l -2.7982,-5.69825 c -4.509,-9.18202 -10.3409,-11.62887 -30.2018,-12.67168 l -12,-0.63007 -0.2999,-5.75 -0.2999,-5.75 h 123.4032 c 67.8718,0 126.1752,-0.28973 129.5632,-0.64385 l 6.16,-0.64384 -0.2633,34.39384 -0.2633,34.39385 -3.0852,0.30106 c -3.588,0.35014 -4.5508,-0.66644 -6.4414,-6.80106 -2.2554,-7.31828 -8.7759,-22.9921 -11.4008,-27.4048 -3.7028,-6.22479 -11.2684,-13.52346 -16.4395,-15.85952 -4.3484,-1.96441 -7.2443,-2.1496 -47.1323,-3.01414 -50.9329,-1.10392 -75.6626,-0.22649 -79.0634,2.80522 -4.9054,4.37308 -4.9374,4.77779 -4.9374,62.44112 v 54.03212 l 45.25,-0.008 c 52.3947,-0.009 60.0581,-0.57515 65.8984,-4.87018 2.2061,-1.62232 5.1155,-4.44672 6.4654,-6.27646 3.0831,-4.17898 6.3053,-14.47198 6.9902,-22.33001 0.9549,-10.95593 0.7645,-10.65873 6.6097,-10.31691 l 5.1499,0.30115 4e-4,51.5 4e-4,51.5 -4.6038,0.30159 -4.6038,0.30159 -0.6529,-5.80159 c -2.5154,-22.35134 -8.1831,-32.79298 -20.2506,-37.30803 -5.0666,-1.89564 -7.8316,-1.99356 -56.2908,-1.99356 h -50.9625 l 0.033,50.25 c 0.018,27.6375 0.4297,53.33027 0.9149,57.09505 1.1316,8.78103 4.9575,15.21481 11.0934,18.65495 l 4.459,2.5 44,0.31698 c 56.6842,0.40837 71.9418,-1.13606 87.8498,-8.89248 16.862,-8.2216 30.5545,-25.35994 37.7339,-47.22997 1.2087,-3.68199 2.6969,-6.73649 3.307,-6.78777 8.5062,-0.71497 9.7801,-0.62535 10.298,0.72447 0.6568,1.71154 -0.7367,9.40629 -4.6847,25.86877 -1.5828,6.6 -4.5078,20.31407 -6.4999,30.47571 -1.9922,10.16164 -3.7203,18.57384 -3.8402,18.69377 -0.12,0.11994 -63.0765,0.38698 -139.9034,0.59342 -119.0993,0.32004 -139.7646,0.1689 -140.2229,-1.02556 z m -295.2876,-207.9536 c 1.5125,-0.22912 3.9875,-0.22912 5.5,0 1.5125,0.22913 0.275,0.41659 -2.75,0.41659 -3.025,0 -4.2625,-0.18746 -2.75,-0.41659 z"
       id="path1" />
  </g>
</svg>
